HIERARCHY
ROOT Model_Hips
{
	OFFSET 0.000000 96.915077 0.000000
	CHANNELS 6 Xposition Yposition Zposition Xrotation Yrotation Zrotation
	JOINT Model_Spine
	{
		OFFSET 0.000000 11.137703 -1.289900
		CHANNELS 3 Xrotation Yrotation Zrotation
		JOINT Model_Spine1
		{
			OFFSET 0.000000 12.993942 -1.504922
			CHANNELS 3 Xrotation Yrotation Zrotation
			JOINT Model_Spine2
			{
				OFFSET 0.000000 14.850220 -1.719911
				CHANNELS 3 Xrotation Yrotation Zrotation
				JOINT Model_Neck
				{
					OFFSET 0.000000 16.706543 -1.934903
					CHANNELS 3 Xrotation Yrotation Zrotation
					JOINT Model_Head
					{
						OFFSET 0.000000 10.471298 2.002100
						CHANNELS 3 Xrotation Yrotation Zrotation
						JOINT Model_HeadTop_End
						{
							OFFSET 0.000000 20.842606 3.985100
							CHANNELS 3 Xrotation Yrotation Zrotation
							End Site
							{
								OFFSET 0.000000 21.220154 0.000000
							}
						}
					}
				}
				JOINT Model_LeftShoulder
				{
					OFFSET 7.008500 14.768600 -1.919946
					CHANNELS 3 Xrotation Yrotation Zrotation
					JOINT Model_LeftArm
					{
						OFFSET 14.126271 -3.718048 0.029937
						CHANNELS 3 Xrotation Yrotation Zrotation
						JOINT Model_LeftForeArm
						{
							OFFSET 28.282801 0.000000 0.000000
							CHANNELS 3 Xrotation Yrotation Zrotation
							JOINT Model_LeftHand
							{
								OFFSET 26.204689 0.000000 0.000000
								CHANNELS 3 Xrotation Yrotation Zrotation
								End Site
								{
									OFFSET 26.204704 0.000000 0.000000
								}
							}
						}
					}
				}
				JOINT Model_RightShoulder
				{
					OFFSET -7.008500 14.768555 -1.949840
					CHANNELS 3 Xrotation Yrotation Zrotation
					JOINT Model_RightArm
					{
						OFFSET -14.126281 -3.718018 -0.029932
						CHANNELS 3 Xrotation Yrotation Zrotation
						JOINT Model_RightForeArm
						{
							OFFSET -28.283798 0.000000 -0.000001
							CHANNELS 3 Xrotation Yrotation Zrotation
							JOINT Model_RightHand
							{
								OFFSET -26.204193 0.000000 -0.000001
								CHANNELS 3 Xrotation Yrotation Zrotation
								End Site
								{
									OFFSET -26.204208 0.000000 -0.000001
								}
							}
						}
					}
				}
			}
		}
	}
	JOINT Model_LeftUpLeg
	{
		OFFSET 8.327700 -6.193199 -0.402800
		CHANNELS 3 Xrotation Yrotation Zrotation
		JOINT Model_LeftLeg
		{
			OFFSET 0.735802 -42.108742 -0.610721
			CHANNELS 3 Xrotation Yrotation Zrotation
			JOINT Model_LeftFoot
			{
				OFFSET -0.735806 -36.833748 -0.172876
				CHANNELS 3 Xrotation Yrotation Zrotation
				JOINT Model_LeftToeBase
				{
					OFFSET -0.565857 -11.977769 16.297714
					CHANNELS 3 Xrotation Yrotation Zrotation
					JOINT Model_LeftToe_End
					{
						OFFSET -0.111712 -0.312793 7.857784
						CHANNELS 3 Xrotation Yrotation Zrotation
						End Site
						{
							OFFSET -0.111712 -0.312793 7.857784
						}
					}
				}
			}
		}
	}
	JOINT Model_RightUpLeg
	{
		OFFSET -8.327700 -6.193199 -0.516500
		CHANNELS 3 Xrotation Yrotation Zrotation
		JOINT Model_RightLeg
		{
			OFFSET -0.735785 -42.108738 -0.434061
			CHANNELS 3 Xrotation Yrotation Zrotation
			JOINT Model_RightFoot
			{
				OFFSET 0.735776 -36.833748 -0.021630
				CHANNELS 3 Xrotation Yrotation Zrotation
				JOINT Model_RightToeBase
				{
					OFFSET 0.565817 -11.977745 15.903093
					CHANNELS 3 Xrotation Yrotation Zrotation
					JOINT Model_RightToe_End
					{
						OFFSET 0.111702 -0.312791 7.811342
						CHANNELS 3 Xrotation Yrotation Zrotation
						End Site
						{
							OFFSET 0.111702 -0.312791 7.811342
						}
					}
				}
			}
		}
	}
}
MOTION
Frames: 9
Frame Time: 0.016667
-1.153489 94.758781 99.602570 -9.793988 4.666041 0.306763 3.654218 0.712096 0.858958 7.298249 1.476982 1.671446 7.298250 1.476981 1.671445 -5.337665 -0.491583 -0.402144 -5.337665 -0.491588 -0.402145 -0.000000 0.000001 -0.000000 8.210697 6.079625 -2.828217 8.160209 -32.578606 -68.508232 -0.133516 -28.746620 -0.004916 0.000001 -0.000001 0.000001 8.576580 4.738144 -5.340307 -6.340408 15.112287 65.703544 -0.074067 39.334779 -0.001978 0.000001 0.000002 -0.000001 -17.255814 7.271467 9.365555 46.072385 -1.323697 -1.770818 -13.721900 -3.275138 -5.202515 -3.892080 -0.031702 0.074244 -0.000001 -0.000000 0.000001 -9.533713 -14.912186 -0.174201 33.262830 -3.456432 1.082756 -15.817789 -14.212278 -4.555083 -2.572654 -0.176830 0.432218 0.000000 -0.000001 0.000000 
-0.990905 94.803024 100.223862 -9.743567 4.475096 0.147914 3.620268 0.735355 0.871615 7.230449 1.530766 1.672788 7.230449 1.530766 1.672788 -5.337559 -0.487622 -0.405302 -5.337567 -0.487621 -0.405305 0.000000 0.000000 0.000000 8.299591 6.253355 -2.918511 8.416390 -32.541651 -68.555285 -0.133386 -29.636266 -0.004609 -0.000002 -0.000000 0.000001 8.618501 4.867663 -5.238713 -6.436388 15.512481 65.516083 -0.072988 40.250578 -0.001766 0.000002 -0.000001 0.000000 -16.378681 7.481471 8.803680 42.171436 -1.177380 -1.640418 -12.776381 -3.944431 -4.983113 -3.390344 -0.031145 0.073206 0.000000 0.000001 -0.000000 -9.059583 -14.932472 -0.106958 33.173003 -3.410321 1.085270 -16.126114 -13.981484 -4.360878 -2.552862 -0.176850 0.432330 0.000000 0.000001 0.000000 
-0.814145 94.852409 100.859344 -9.715090 4.289471 -0.070825 3.578297 0.737018 0.896556 7.146873 1.540657 1.693191 7.146874 1.540657 1.693191 -5.326725 -0.478130 -0.404498 -5.326730 -0.478131 -0.404501 -0.000000 -0.000000 0.000000 8.386295 6.410907 -2.994233 8.523469 -32.478676 -68.712796 -0.132403 -30.281616 -0.004438 0.000001 -0.000000 -0.000001 8.661778 4.987359 -5.131975 -6.497658 16.025727 65.357609 -0.071590 41.053596 -0.001245 -0.000001 -0.000000 0.000000 -15.495881 7.666466 8.346015 38.938468 -0.945830 -1.522878 -11.840869 -4.392887 -4.567441 -2.766892 -0.030478 0.070970 0.000000 -0.000002 -0.000000 -8.492889 -14.906639 0.042814 32.989838 -3.376364 1.084954 -16.391095 -13.799376 -4.151724 -2.538418 -0.176806 0.432413 0.000000 -0.000001 0.000000 
-0.632991 94.920235 101.499336 -9.726887 4.112801 -0.333822 3.529992 0.719756 0.929580 7.050842 1.512112 1.726989 7.050842 1.512114 1.726990 -5.306134 -0.463825 -0.399481 -5.306140 -0.463823 -0.399486 -0.000000 0.000000 0.000000 8.469650 6.545673 -3.046866 8.480048 -32.405645 -68.967330 -0.130604 -30.664127 -0.004316 0.000001 -0.000001 0.000001 8.706675 5.096918 -5.019450 -6.558659 16.588380 65.263564 -0.070056 41.703824 -0.000586 0.000002 0.000005 -0.000002 -14.626997 7.836186 7.999888 36.333837 -0.664507 -1.420328 -10.961853 -4.634696 -3.988248 -2.135343 -0.029806 0.068342 0.000000 -0.000002 0.000000 -7.796454 -14.823500 0.275277 32.655664 -3.358253 1.080042 -16.579845 -13.675557 -3.934675 -2.527380 -0.176792 0.432488 0.000000 0.000002 0.000000 
-0.447648 94.998131 102.137482 -9.774973 3.941829 -0.604255 3.477816 0.685446 0.962092 6.947301 1.448853 1.760688 6.947300 1.448854 1.760688 -5.278270 -0.445833 -0.390508 -5.278272 -0.445837 -0.390511 -0.000000 -0.000000 0.000000 8.548495 6.649612 -3.072820 8.302081 -32.340775 -69.286668 -0.128108 -30.788700 -0.004247 0.000002 -0.000001 -0.000000 8.753494 5.193257 -4.897620 -6.653894 17.130733 65.269745 -0.068409 42.175117 0.000240 -0.000000 0.000001 -0.000001 -13.794361 8.005757 7.731715 34.261086 -0.367919 -1.332711 -10.186021 -4.722085 -3.297266 -1.589310 -0.029250 0.066013 0.000000 0.000000 -0.000000 -7.018775 -14.676704 0.540446 32.227616 -3.341793 1.072575 -16.717926 -13.618167 -3.714106 -2.517369 -0.176757 0.432547 0.000000 0.000000 0.000000 
-0.260620 95.082611 102.765503 -9.869517 3.776931 -0.843510 3.424109 0.637902 0.986556 6.840832 1.358487 1.782092 6.840827 1.358492 1.782093 -5.246436 -0.425471 -0.378373 -5.246435 -0.425471 -0.378374 0.000000 0.000000 0.000000 8.622094 6.715121 -3.073713 8.017245 -32.298407 -69.628000 -0.125042 -30.682456 -0.004208 -0.000001 -0.000002 -0.000001 8.802720 5.272052 -4.761517 -6.812662 17.587609 65.407688 -0.066656 42.456080 0.001113 0.000005 0.000000 -0.000001 -12.957111 8.198584 7.491282 32.530067 -0.087283 -1.244509 -9.506338 -4.726442 -2.566916 -1.188848 -0.028842 0.064428 0.000000 0.000000 0.000000 -6.183962 -14.457395 0.793419 31.743028 -3.320427 1.062919 -16.820902 -13.637430 -3.493013 -2.506575 -0.176727 0.432611 0.000001 -0.000000 0.000000 
-0.072165 95.171432 103.380157 -9.985895 3.610663 -1.043369 3.370747 0.581737 0.999426 6.735187 1.250180 1.784431 6.735186 1.250181 1.784432 -5.213748 -0.403953 -0.364284 -5.213747 -0.403953 -0.364283 -0.000000 -0.000000 0.000000 8.690789 6.737064 -3.055436 7.658060 -32.284221 -69.947318 -0.121562 -30.391613 -0.004227 -0.000001 -0.000001 0.000001 8.855201 5.329398 -4.606736 -7.052605 17.908068 65.698756 -0.064768 42.550620 0.001954 0.000000 -0.000000 -0.000000 -12.105781 8.432037 7.265548 30.985669 0.157765 -1.158100 -8.913725 -4.718363 -1.865296 -0.957142 -0.028614 0.063704 0.000000 -0.000001 0.000000 -5.336285 -14.160891 1.019379 31.224623 -3.280297 1.050646 -16.896845 -13.744209 -3.276894 -2.494376 -0.176713 0.432686 0.000000 -0.000001 0.000000 
0.116616 95.259239 103.978363 -10.110432 3.436561 -1.175974 3.318437 0.521644 0.997993 6.631649 1.133098 1.763901 6.631650 1.133096 1.763901 -5.183580 -0.382291 -0.349833 -5.183607 -0.382292 -0.349838 0.000000 -0.000000 0.000000 8.755194 6.714199 -3.026737 7.256104 -32.293018 -70.207603 -0.117650 -29.977082 -0.004194 0.000003 -0.000001 0.000000 8.911248 5.362790 -4.432120 -7.373533 18.062717 66.148627 -0.062779 42.479412 0.002845 -0.000003 0.000001 -0.000001 -11.234677 8.720028 7.033410 29.563962 0.359208 -1.090835 -8.419234 -4.751207 -1.245297 -0.885253 -0.028545 0.063727 0.000000 0.000001 -0.000000 -4.528240 -13.780556 1.179028 30.729527 -3.210824 1.037857 -16.973293 -13.947837 -3.069242 -2.481809 -0.176738 0.432756 0.000000 0.000002 0.000000 
0.307053 95.352287 104.560425 -10.219718 3.247509 -1.261435 3.267282 0.462087 0.982785 6.530417 1.016018 1.720747 6.530417 1.016016 1.720746 -5.158534 -0.361104 -0.336674 -5.158536 -0.361103 -0.336676 -0.000000 0.000000 -0.000000 8.816465 6.650191 -2.997334 6.838286 -32.309875 -70.384041 -0.113479 -29.508128 -0.004224 0.000001 -0.000001 0.000001 8.970955 5.372380 -4.239898 -7.754782 18.047482 66.744404 -0.060582 42.279161 0.003667 0.000001 0.000001 -0.000000 -10.365242 9.066821 6.816722 28.264588 0.517455 -1.040638 -8.044832 -4.849235 -0.754550 -0.942300 -0.028588 0.064239 0.000000 0.000000 -0.000000 -3.759086 -13.312161 1.297088 30.213017 -3.109268 1.023461 -17.025100 -14.252937 -2.873796 -2.471858 -0.176728 0.432813 0.000000 0.000000 0.000000 
